<?xml version="1.0" encoding="utf-8"?>
<!-- Generator: Adobe Illustrator 24.0.1, SVG Export Plug-In . SVG Version: 6.00 Build 0)  -->
<svg version="1.1" id="Capa_1" xmlns="http://www.w3.org/2000/svg" xmlns:xlink="http://www.w3.org/1999/xlink" x="0px" y="0px"
	 viewBox="0 0 133 133" style="enable-background:new 0 0 133 133;" xml:space="preserve">
<style type="text/css">
	.st0{fill:#201E2D;}
	.st1{fill:#EB2A53;}
	.st2{fill:#EB2A53;stroke:#EB2A53;stroke-width:3;stroke-miterlimit:10;}
</style>
<title>avatar</title>
<g>
	<rect x="-1.3" y="-0.3" class="st0" width="134.3" height="133.3"/>
	<g>
		<path class="st1" d="M57.9,71.4h0.9c8-0.1,14.5-2.9,19.3-8.3c10.5-11.8,8.8-32,8.6-33.9C86,14.8,79.1,7.9,73.4,4.6
			c-4.2-2.4-9.2-3.7-14.7-3.8h-0.5c-3,0-9,0.5-14.7,3.7c-5.7,3.2-12.7,10.1-13.4,24.7c-0.2,1.9-1.9,22.1,8.6,33.9
			C43.4,68.5,49.9,71.3,57.9,71.4z M37.4,29.9c0-0.1,0-0.2,0-0.2C38.3,10.3,52.2,8.2,58.2,8.2h0.3c7.4,0.2,19.9,3.1,20.8,21.5
			c0,0.1,0,0.1,0,0.2c0,0.2,1.9,18.6-6.7,28.4c-3.4,3.9-8,5.8-14.1,5.8h-0.3c-6-0.1-10.6-2-14-5.8C35.5,48.6,37.4,30.1,37.4,29.9z"
			/>
		<path class="st1" d="M114.5,104.9L114.5,104.9c0-0.3,0-0.5,0-0.8c-0.2-5.4-0.5-17.9-12.4-21.9c-0.1,0-0.2-0.1-0.3-0.1
			C89.5,79,79.3,71.9,79.2,71.8c-1.7-1.2-4-0.8-5.1,0.9c-1.2,1.7-0.8,3.9,0.9,5.1c0.5,0.3,11.3,7.8,24.9,11.3
			c6.4,2.3,7.1,9,7.3,15.2c0,0.2,0,0.5,0,0.7c0,2.4-0.1,6.2-0.6,8.4c-4.4,2.5-21.8,11.1-48.2,11.1c-26.3,0-43.7-8.7-48.2-11.2
			c-0.4-2.2-0.6-5.9-0.6-8.4c0-0.2,0-0.4,0-0.7c0.2-6.2,0.9-12.9,7.3-15.2c13.6-3.5,24.5-11,24.9-11.3c1.7-1.2,2.1-3.4,0.9-5.1
			c-1.2-1.7-3.5-2.1-5.1-0.9c0,0,0,0,0,0C37.5,71.9,27.4,79,15,82.1c-0.1,0-0.2,0.1-0.3,0.1c-11.9,4-12.2,16.6-12.4,21.9
			c0,0.2,0,0.5,0,0.7v0.1c0,1.4-0.1,8.7,1.4,12.3c0.3,0.7,0.8,1.3,1.4,1.7c0.8,0.5,20.5,13,53.3,13s52.5-12.5,53.3-13
			c0.6-0.4,1.1-1,1.4-1.7C114.6,113.5,114.5,106.3,114.5,104.9z"/>
		<path class="st2" d="M126.1,55.6h-16.3V39.4c0-1.8-1.5-3.3-3.3-3.3c-1.8,0-3.3,1.5-3.3,3.3v16.1H86.9c-1.8,0-3.3,1.5-3.3,3.3
			c0,1.8,1.5,3.3,3.3,3.3c0,0,0,0,0,0c0,0,0,0,0,0h16.3v16.1c0,1.8,1.5,3.3,3.3,3.3c1.8,0,3.3-1.5,3.3-3.3V62.2h16.3
			c1.8,0,3.3-1.5,3.3-3.3C129.4,57.1,127.9,55.6,126.1,55.6C126.1,55.6,126.1,55.6,126.1,55.6C126.1,55.6,126.1,55.6,126.1,55.6z"/>
	</g>
</g>
</svg>
