<svg id="Capa_1" data-name="Capa 1" xmlns="http://www.w3.org/2000/svg" viewBox="0 0 482.89999 482.89999"><defs><style>.cls-1{fill:#201e2d;}.cls-2,.cls-3{fill:#eb2a53;}.cls-3{stroke:#eb2a53;stroke-miterlimit:10;stroke-width:3px;}</style></defs><title>nuevo</title><rect class="cls-1" width="482.89999" height="482.89999"/><path class="cls-2" d="M212.97707,259.87218h3.144c28.78765-.49125,52.07321-10.61115,69.26721-29.96665,37.82676-42.64108,31.53867-115.74008,30.85093-122.71592-2.45627-52.368-27.21564-77.422-47.65189-89.11395-15.229-8.74441-33.01245-13.46047-52.85925-13.85348h-1.67028c-10.90589,0-32.32469,1.76853-52.85922,13.46044-20.63278,11.6919-45.78512,36.746-48.24141,89.507-.68775,6.97584-6.97585,80.07482,30.85092,122.7159C160.90384,249.261,184.18941,259.3809,212.97707,259.87218ZM139.19031,109.64587c0-.29476.09826-.5895.09826-.786,3.2423-70.4462,53.25223-78.01156,74.671-78.01156h1.179c26.52788.58951,71.62523,11.39716,74.671,78.01156a1.91549,1.91549,0,0,0,.09827.786c.09826.68775,6.97586,67.49866-24.2681,102.67264-12.37967,13.95168-28.8859,20.82929-50.59944,21.02577h-.98252c-21.61529-.1965-38.21975-7.07409-50.50117-21.02578C132.411,177.341,139.09206,110.23537,139.19031,109.64587Z"/><path class="cls-2" d="M416.45554,381.1143v-.29474c0-.786-.09827-1.572-.09827-2.45629-.58951-19.45377-1.86676-64.94413-44.50784-79.48533-.29474-.09823-.68778-.1965-.98252-.29473-44.31137-11.29889-81.15561-36.84424-81.54861-37.139a13.26083,13.26083,0,0,0-15.22895,21.71353c1.67029,1.179,40.7743,28.39462,89.7035,40.97082,22.89254,8.15485,25.44708,32.61945,26.13485,55.02076a19.73074,19.73074,0,0,0,.09827,2.4563c.09827,8.84262-.49127,22.49954-2.06329,30.35964-15.91672,9.03916-78.30631,40.28306-173.21712,40.28306-94.51777,0-157.30039-31.34217-173.31534-40.38132-1.572-7.86011-2.25978-21.517-2.06328-30.35965,0-.786.09825-1.572.09825-2.45627.68776-22.40131,3.24231-46.86591,26.13486-55.02075,48.92916-12.57617,88.03319-39.89,89.70348-40.97083a13.26082,13.26082,0,0,0-15.18912-21.74139l-.03981.02792c-.393.29474-37.04075,25.84009-81.54861,37.139-.393.09827-.68776.19653-.98251.29474C14.90239,313.41914,13.62512,358.90953,13.03561,378.265a19.734,19.734,0,0,1-.09824,2.45627v.29474c-.09825,5.10907-.19651,31.34216,5.01081,44.50784a12.60588,12.60588,0,0,0,5.10907,6.18982c2.94754,1.965,73.59025,46.96411,191.78661,46.96411s188.83906-45.09735,191.7866-46.96411a13.14806,13.14806,0,0,0,5.10907-6.18982C416.65207,412.45647,416.5538,386.22334,416.45554,381.1143Z"/><path class="cls-3" d="M457.958,202.51254H399.48306V144.03767a11.99817,11.99817,0,0,0-23.99634,0v58.47486H317.01233a11.99911,11.99911,0,1,0-.0654,23.99813l.00922,0q.0281.00009.05618,0h58.47439v58.47484a11.99817,11.99817,0,0,0,23.99634,0V226.51068h58.47486a11.99911,11.99911,0,0,0,.06466-23.99814h-.00848Q457.986,202.51246,457.958,202.51254Z"/></svg>